<svg width="197" height="38" viewBox="0 0 197 38" fill="none" xmlns="http://www.w3.org/2000/svg">
<g clip-path="url(#clip0_1237_14753)">
<path d="M42.7785 0.43021C39.0835 0.984802 36.0603 2.83345 34.3808 5.56535C32.5629 8.4821 32.3258 12.9805 33.8078 16.1643C35.0724 18.8756 37.898 20.6832 43.1737 22.1826C50.2277 24.1751 51.354 24.8324 51.5318 26.9686C51.6899 28.8994 50.8403 29.9264 48.5877 30.5221C45.4065 31.3643 41.1582 30.1729 37.4237 27.3999L36.0208 26.3524L33.8078 29.0843C32.6025 30.6043 31.6145 31.9189 31.6145 32.0421C31.6145 32.4118 34.6574 34.6097 36.3765 35.4724C39.538 37.0745 42.6402 37.7935 46.3352 37.7935C50.1487 37.7935 52.7174 37.054 55.128 35.3081C58.171 33.0897 59.7122 29.0226 59.1194 24.7913C58.823 22.6345 58.1117 21.1351 56.7088 19.7178C54.9107 17.8691 52.5001 16.7394 47.1058 15.1989C43.3713 14.1102 42.166 13.6378 41.3361 12.8367C40.7038 12.241 40.6247 12.0356 40.5655 10.9675C40.5062 10.0226 40.5655 9.61183 40.8816 9.09832C41.4546 8.13291 42.6995 7.55778 44.3988 7.43453C46.9477 7.27021 49.1805 7.94805 52.421 9.87886C53.3892 10.454 54.1994 10.9059 54.2191 10.8648C54.5155 10.4745 57.9536 5.19561 58.0129 5.03129C58.1117 4.76426 56.0172 3.28534 54.1994 2.36102C50.8403 0.656155 46.3352 -0.103844 42.7785 0.43021Z" fill="url(#paint0_linear_1237_14753)"/>
<path d="M78.8394 0.615696C76.7251 1.08813 75.7569 1.45786 73.9391 2.46434C68.3274 5.60704 64.8696 11.2762 64.4744 17.9725C63.8816 28.0784 70.1255 36.1919 79.6298 37.6914C82.8505 38.2049 85.9922 38.02 89.1142 37.1573C90.6159 36.726 94.6468 34.8362 94.6468 34.5487C94.6468 34.4665 93.1056 33.4806 91.2284 32.3508C87.5335 30.1119 87.7508 30.1735 84.9055 30.5638C79.9064 31.2211 75.8755 29.126 73.8008 24.7508C72.141 21.3 72.1212 17.0687 73.7415 13.5973C74.4923 11.9541 76.6461 9.61245 78.1676 8.79083C81.823 6.75732 86.7629 7.37353 90.6554 10.3519L91.841 11.2762L94.0738 8.46218C95.2989 6.92164 96.3659 5.54543 96.4647 5.40164C96.8796 4.84705 93.0265 2.30002 90.2405 1.31407C87.0592 0.184345 82.0997 -0.123764 78.8394 0.615696Z" fill="url(#paint1_linear_1237_14753)"/>
<path d="M0.19751 19.1032V37.3843H13.535H26.8725V33.7897V30.1951H17.2893H7.70604V26.3951V22.5951H16.0049H24.3038V19.0005V15.4059L16.0642 15.3648L7.80483 15.3032L7.74555 11.647L7.70604 8.01131H17.1905H26.6749V4.41671V0.822117H13.4362H0.19751V19.1032Z" fill="url(#paint2_linear_1237_14753)"/>
<path d="M113.418 13.9671C111.304 14.4395 109.348 15.9595 108.459 17.8287C108.064 18.6298 107.985 19.1228 107.985 20.7455C107.985 22.5325 108.044 22.7995 108.577 23.806C109.546 25.6547 110.889 26.4557 114.96 27.6471C118.991 28.8179 119.544 29.1876 119.544 30.6049C119.544 33.3779 114.92 33.6038 111.205 31.0157C110.534 30.5638 109.921 30.2147 109.842 30.2352C109.743 30.2763 109.091 31.0363 108.36 31.9401L107.056 33.5833L107.767 34.2201C108.716 35.0622 110.435 36.0071 112.134 36.6028C113.32 37.0136 113.893 37.0752 116.283 37.0752C119.761 37.0547 120.828 36.6849 122.527 34.939C123.891 33.5217 124.286 32.4125 124.286 30.112C124.286 26.3325 122.705 24.833 116.896 23.1282C115.493 22.6968 114.09 22.2244 113.794 22.0601C112.529 21.3822 112.272 20.1292 113.201 19.0611C113.774 18.3833 113.794 18.3833 115.631 18.3833C117.41 18.3833 117.528 18.4038 119.228 19.3076C120.216 19.8211 121.065 20.2525 121.144 20.2936C121.204 20.3141 121.816 19.513 122.488 18.486L123.713 16.6374L122.488 15.8157C120.117 14.2341 116.046 13.392 113.418 13.9671Z" fill="url(#paint3_linear_1237_14753)"/>
<path d="M184.216 13.9662C180.027 14.7673 176.687 17.8073 175.443 22.0181C174.81 24.1543 174.81 24.1749 177.339 24.9759C178.545 25.3457 179.572 25.6743 179.632 25.6743C179.691 25.6743 179.809 25.1608 179.869 24.5446C180.106 22.203 181.509 20.0051 183.465 18.937C184.334 18.444 184.67 18.3824 186.33 18.3824C188.009 18.3824 188.326 18.444 189.294 18.9576C189.887 19.2862 190.4 19.5738 190.44 19.6149C190.479 19.6559 190.282 20.0667 190.005 20.5186L189.491 21.3608L192.198 21.3403C193.7 21.3403 195.34 21.2581 195.834 21.1965L196.763 21.0527L195.874 18.9986C195.38 17.8689 194.728 16.3489 194.411 15.6095L193.819 14.2949L193.443 14.8905C193.226 15.2397 192.989 15.5067 192.91 15.4862C192.811 15.4862 192.317 15.2603 191.764 14.9932C191.23 14.7262 190.341 14.3976 189.788 14.2332C188.484 13.884 185.5 13.7403 184.216 13.9662Z" fill="#F76103"/>
<path d="M126.459 14.2548C126.459 14.2959 128.336 17.3975 130.609 21.1359L134.758 27.9143V32.4537V36.9727H137.129H139.5V32.4743V27.9964L143.018 22.2656C144.954 19.1024 146.871 16.0008 147.266 15.3435L147.997 14.1727H145.25H142.504L139.876 18.6916C138.433 21.177 137.208 23.1489 137.149 23.0873C137.09 23.0256 135.924 21.0332 134.561 18.63L132.071 14.2754L129.265 14.2137C127.724 14.1932 126.459 14.1932 126.459 14.2548Z" fill="url(#paint4_linear_1237_14753)"/>
<path d="M151.001 25.511L151.06 36.87H153.431H155.802L155.901 29.7629L156 22.6764L161.236 29.8245L166.472 36.9727H168.507H170.523V25.5727V14.1727H168.152H165.781L165.741 21.0948L165.682 28.017L160.643 21.1154L155.605 14.1932H153.273L150.961 14.1727L151.001 25.511Z" fill="url(#paint5_linear_1237_14753)"/>
<path d="M82.7318 16.3715C82.6528 16.4331 82.5935 18.0148 82.5935 19.8634V23.2115H86.5454H90.4775L90.5367 25.1834L90.596 27.1758L94.1527 29.2915C96.0891 30.4623 97.7686 31.4277 97.8477 31.4277C97.9465 31.4277 97.986 28.0385 97.9662 23.8688L97.9069 16.3304L90.3787 16.2688C86.249 16.2483 82.8109 16.2894 82.7318 16.3715Z" fill="url(#paint6_linear_1237_14753)"/>
<path d="M175.363 27.8117C175.422 28.0377 175.64 29.4961 175.857 31.0161C176.074 32.5361 176.312 34.0561 176.371 34.3642L176.489 34.9598L177.141 34.3025L177.793 33.6452L178.841 34.508C181.093 36.3566 183.366 37.1782 186.231 37.1782C188.384 37.1782 190.163 36.7674 191.664 35.9252C192.85 35.268 194.885 33.5425 194.786 33.2755C194.747 33.1934 194.134 32.4539 193.403 31.6528L192.06 30.1944L191.151 30.9339C189.195 32.4744 187.219 33.0496 185.223 32.6798C183.998 32.4334 182.437 31.6323 181.765 30.8928L181.311 30.3998L181.864 29.8042L182.397 29.229L178.841 28.3047C175.383 27.4009 175.264 27.3804 175.363 27.8117Z" fill="#F76103"/>
</g>
<defs>
<linearGradient id="paint0_linear_1237_14753" x1="45.4295" y1="0.261703" x2="45.9873" y2="37.7852" gradientUnits="userSpaceOnUse">
<stop offset="0.0135415" stop-color="#015E89"/>
<stop offset="1" stop-color="#014144"/>
</linearGradient>
<linearGradient id="paint1_linear_1237_14753" x1="80.4655" y1="0.213668" x2="80.9521" y2="37.9693" gradientUnits="userSpaceOnUse">
<stop offset="0.0135415" stop-color="#015E89"/>
<stop offset="1" stop-color="#014144"/>
</linearGradient>
<linearGradient id="paint2_linear_1237_14753" x1="13.5349" y1="0.822116" x2="14.0832" y2="37.3761" gradientUnits="userSpaceOnUse">
<stop offset="0.0135415" stop-color="#015E89"/>
<stop offset="1" stop-color="#014144"/>
</linearGradient>
<linearGradient id="paint3_linear_1237_14753" x1="115.671" y1="13.7859" x2="116.015" y2="37.0701" gradientUnits="userSpaceOnUse">
<stop offset="0.0135415" stop-color="#015E89"/>
<stop offset="1" stop-color="#014144"/>
</linearGradient>
<linearGradient id="paint4_linear_1237_14753" x1="137.228" y1="14.1727" x2="137.492" y2="36.9696" gradientUnits="userSpaceOnUse">
<stop offset="0.0135415" stop-color="#015E89"/>
<stop offset="1" stop-color="#014144"/>
</linearGradient>
<linearGradient id="paint5_linear_1237_14753" x1="160.742" y1="14.1727" x2="161.033" y2="36.9689" gradientUnits="userSpaceOnUse">
<stop offset="0.0135415" stop-color="#015E89"/>
<stop offset="1" stop-color="#014144"/>
</linearGradient>
<linearGradient id="paint6_linear_1237_14753" x1="90.2823" y1="16.2636" x2="90.4459" y2="31.426" gradientUnits="userSpaceOnUse">
<stop offset="0.0135415" stop-color="#015E89"/>
<stop offset="1" stop-color="#014144"/>
</linearGradient>
<clipPath id="clip0_1237_14753">
<rect width="197" height="38" fill="white"/>
</clipPath>
</defs>
</svg>
