<svg width="20" height="20" viewBox="0 0 20 20" fill="none" xmlns="http://www.w3.org/2000/svg">
<g clip-path="url(#clip0_5882_5333)">
<path d="M13.1627 0.00012207C11.9907 0.00012207 11.0043 0.808091 10.7302 1.89622H0.612227C0.274141 1.89622 0 2.17032 0 2.50844C0 2.84657 0.274141 3.12071 0.612227 3.12071H10.7303C11.0043 4.20879 11.9907 5.0168 13.1627 5.0168C14.5458 5.0168 15.671 3.89157 15.671 2.50848C15.671 1.1254 14.5457 0.00012207 13.1627 0.00012207Z" fill="#015E89"/>
<path d="M6.83734 7.49219C5.66543 7.49219 4.67891 8.30016 4.40488 9.38828H0.612227C0.274141 9.38828 0 9.66238 0 10.0005C0 10.3386 0.274141 10.6127 0.612227 10.6127H4.40488C4.67887 11.7008 5.66539 12.5088 6.83734 12.5088C8.22043 12.5088 9.34563 11.3836 9.34563 10.0005C9.34563 8.61738 8.22039 7.49219 6.83734 7.49219Z" fill="#015E89"/>
<path d="M19.3875 1.89844H16.8447C16.912 2.30465 16.9121 2.7166 16.8447 3.12293H19.3875C19.7256 3.12293 19.9997 2.84879 19.9997 2.5107C19.9997 2.17262 19.7256 1.89844 19.3875 1.89844Z" fill="#015E89"/>
<path d="M13.1627 14.9844C11.9907 14.9844 11.0043 15.7923 10.7302 16.8805H0.612227C0.274141 16.8804 0 17.1546 0 17.4927C0 17.8308 0.274141 18.1049 0.612227 18.1049H10.7303C11.0043 19.193 11.9907 20.001 13.1627 20.001C14.5458 20.001 15.671 18.8758 15.671 17.4927C15.671 16.1096 14.5457 14.9844 13.1627 14.9844Z" fill="#015E89"/>
<path d="M19.3875 16.8828H16.8447C16.912 17.289 16.9121 17.701 16.8447 18.1073H19.3875C19.7256 18.1073 19.9997 17.8332 19.9997 17.4951C19.9997 17.157 19.7256 16.8828 19.3875 16.8828Z" fill="#015E89"/>
<path d="M19.3877 9.39062H10.5195C10.5868 9.79676 10.5869 10.2088 10.5195 10.6151H19.3877C19.7258 10.6151 19.9999 10.341 19.9999 10.0029C19.9999 9.6648 19.7257 9.39062 19.3877 9.39062Z" fill="#015E89"/>
</g>
<defs>
<clipPath id="clip0_5882_5333">
<rect width="20" height="20" fill="white"/>
</clipPath>
</defs>
</svg>
